<svg id="Layer_1" data-name="Layer 1" xmlns="http://www.w3.org/2000/svg" viewBox="0 0 841.89 595.28"><defs><style>.cls-1{fill:#fff;}.cls-2{fill:#523223;}.cls-3{fill:#00b2ba;}</style></defs><title>Artboard 1</title><ellipse class="cls-1" cx="419.67" cy="298.33" rx="283" ry="282.67"/><path class="cls-2" d="M288.07,323.32c1.57-.49,2.68,0,3.15,1.49l4,12.73c2.27,7.31-1.55,14.1-9.59,16.61s-15.22-.85-17.5-8.16l-2.48-8-11.82,3.69c-1.64.51-2.69,0-3.15-1.49l-.79-2.52c-.46-1.48.11-2.51,1.74-3Zm-13.86,19.32c1.31,4.17,4.84,5.66,9.15,4.32s6.25-4.54,5-8.61l-2.11-6.75-14.1,4.4Z"/><path class="cls-2" d="M301.81,360.8c1.37-.9,2.58-.73,3.44.56l6.08,9.22c2.21,3.36,3,5.24,3.3,7.12.76,4.46-1.22,9-6.11,12.23-4.28,2.82-9.75,3.4-13.62.85l-.1.07a15.15,15.15,0,0,1-1.16,2.35L286.45,406c-.94,1.79-2.42,1.87-3.47.28l-1.71-2.59a2.9,2.9,0,0,1-.07-3.32l8.06-13.94-3.93-5.95L274,388c-1.43.94-2.59.74-3.44-.56l-1.46-2.21c-.85-1.29-.58-2.44.84-3.38Zm-7.1,21.5c2.19,3.31,5.74,3.93,9.31,1.58,2.29-1.52,3.58-3.54,3.16-5.95a9.64,9.64,0,0,0-1.82-4.1l-3-4.56L291,376.73Z"/><path class="cls-2" d="M342.09,402.82c9.76,7.6,10.7,20.62,3.09,30.39-7.83,10.07-20.84,12.55-30.6,5s-10.55-20.81-2.71-30.87C319.48,397.52,332.33,395.23,342.09,402.82ZM319,432.48c6.18,4.81,14.75,3,20.14-4,5.18-6.65,4.7-15.21-1.47-20s-14.59-3.16-19.77,3.49C312.51,418.92,312.83,427.68,319,432.48Z"/><path class="cls-2" d="M386.3,425.35A23.54,23.54,0,0,1,398,433c.92,1.35.71,2.44-.51,3.54L396,437.84c-1.23,1.1-2.26.92-3.39-.31a16.65,16.65,0,0,0-7.94-5.17c-8.55-2.54-15.23,2.59-17.57,10.43-2.59,8.71,1.4,16.46,8.67,18.63A13.35,13.35,0,0,0,387,459.81l1.38-4.62-3.75-1.11a2.26,2.26,0,0,1-1.58-3.15l.47-1.58c.48-1.64,1.55-2.21,3-1.76l7.83,2.33c1.49.44,2,1.49,1.53,3.13l-5.05,17c-.49,1.63-1.51,2.22-3,1.78l-1.37-.41c-1.49-.45-2-1.49-1.67-2.66l.29-1c.16-.52.36-1,.36-1l-.11,0A16.14,16.14,0,0,1,372.52,468c-10.36-3.08-16.67-14.32-12.89-27C363.32,428.56,374.61,421.86,386.3,425.35Z"/><path class="cls-2" d="M414.72,433.9c-.1-1.64.65-2.6,2.2-2.7l11-.66c4-.24,6.05,0,7.82.7,4.24,1.58,7.19,5.56,7.54,11.4.31,5.12-1.93,10.14-6.07,12.23V455a15.35,15.35,0,0,1,1.45,2.17l7.5,12.63c1.08,1.71.41,3-1.48,3.15l-3.1.19a2.9,2.9,0,0,1-2.92-1.6l-8-13.95-7.11.43.81,13.58c.1,1.71-.65,2.61-2.2,2.7l-2.64.16c-1.55.09-2.41-.71-2.51-2.42Zm15.07,16.89c4-.24,6.27-3,6-7.27-.16-2.74-1.27-4.87-3.56-5.72a9.88,9.88,0,0,0-4.47-.46l-5.45.33.81,13.52Z"/><path class="cls-2" d="M464.71,425a2.61,2.61,0,0,1,1.71-2.94l3.41-1.4a2.56,2.56,0,0,1,3.28.89l26.37,30.6c1.2,1.42.95,2.78-.7,3.46l-2.45,1a2.6,2.6,0,0,1-3.29-.89L487,448.48l-13.24,5.43.79,9.37a2.57,2.57,0,0,1-1.69,3l-2.44,1c-1.65.67-2.78-.12-2.92-2Zm18.11,18.23-7.76-9.35c-1.56-2-4-5.6-4-5.6l-.11,0s.77,4.3,1.06,6.82l1,12.13Z"/><path class="cls-2" d="M495.39,410.53c-1-1.28-.95-2.45.14-3.47l2.65-2.48a2.63,2.63,0,0,1,3.4-.32l18.53,9.16c2.42,1.25,5.85,3.23,5.85,3.23l.08-.08s-1.78-3.51-2.86-6l-7.85-19.13a2.65,2.65,0,0,1,.6-3.4l2.61-2.43a2.32,2.32,0,0,1,3.48.1l28.24,26c1.21,1.12,1.28,2.39.11,3.48l-1.9,1.77a2.31,2.31,0,0,1-3.47-.1L529,402c-2.08-2-4.62-4.87-4.62-4.87l-.08.08s2,3.94,3,6.4L533,418.41a2.62,2.62,0,0,1-.6,3.31l-1.77,1.65a2.65,2.65,0,0,1-3.39.41L512.89,417c-2.38-1.2-6.26-3.42-6.26-3.42l-.08.08s2.75,2.78,4.58,5l13.72,17a2.28,2.28,0,0,1-.14,3.47l-1.89,1.77c-1.18,1.1-2.44.93-3.48-.35Z"/><path class="cls-2" d="M532.13,371.66c-1.36-.83-1.8-1.92-1.16-3.28l1.53-3.28a2.63,2.63,0,0,1,3-1.57l20.61,1.59c2.71.25,6.63.82,6.63.82l.05-.11s-3-2.59-4.9-4.51L543.5,346.5a2.65,2.65,0,0,1-.71-3.38l1.51-3.23a2.31,2.31,0,0,1,3.26-1.2l35.9,13.56c1.54.6,2.08,1.74,1.4,3.2l-1.1,2.34A2.31,2.31,0,0,1,580.5,359l-20.39-7.83c-2.67-1.06-6.1-2.79-6.1-2.79l0,.1s3.28,2.93,5.15,4.82L570,364.93a2.62,2.62,0,0,1,.67,3.3l-1,2.19a2.64,2.64,0,0,1-3,1.64l-15.86-.94c-2.66-.23-7.09-.85-7.09-.85l-.05.11s3.59,1.55,6.11,2.92l19.07,10.64a2.28,2.28,0,0,1,1.16,3.28l-1.09,2.34c-.69,1.46-1.91,1.77-3.35,1Z"/><path class="cls-2" d="M551.12,322.68c-1.63-.19-2.45-1.1-2.26-2.65l2.37-19.52a2.26,2.26,0,0,1,2.84-2.09l1.69.21a2.2,2.2,0,0,1,2.2,2.69l-1.77,14.56,11.26,1.37,1.38-11.3a2.21,2.21,0,0,1,2.77-2.1l1.7.21c1.7.2,2.44,1.16,2.25,2.7l-1.37,11.31,11.57,1.41L587.63,304a2.2,2.2,0,0,1,2.77-2.09l1.7.2c1.69.21,2.44,1.17,2.25,2.71l-2.48,20.44c-.19,1.54-1.13,2.24-2.83,2Z"/><path class="cls-2" d="M291.73,237.27c-2-3.05-4.35-5.88-6.57-8.79-3.67-4.79-7.67-9.34-10.45-14.78a46.41,46.41,0,0,1-2.13-4.3c-.31-.79-.65-1.43-1.57-1.64s-1.09-.88-1.07-1.71a10.21,10.21,0,0,1,1.17-4.08,79.71,79.71,0,0,1,5.93-10c.53-.82,1.09-1.62,1.56-2.47a5.74,5.74,0,0,1,1.53-1.61c.88-.71,1.46-.66,2.42,0a38.44,38.44,0,0,0,6.51,3.72,37.32,37.32,0,0,1,4.63,2.45c1.32.85,2.81,1.42,4.16,2.27,3.33,2.11,6.67,4.2,10,6.36a76.57,76.57,0,0,0,10.32,5.39c3.54,1.6,7,3.38,10.46,5.13,3,1.5,6,2.89,9.07,4.11a8.24,8.24,0,0,1,3.85,3c.8,1.2.64,1.74-.42,2.65a17.66,17.66,0,0,0-4,5.32,14.54,14.54,0,0,1-3,4.14,12.37,12.37,0,0,0-2.29,3c-.49.83-.92.76-1.63.34-2.9-1.75-5.82-3.46-8.74-5.17l-24.16-14.21a1.34,1.34,0,0,0,.39,1.07l15.35,22.26c.52.76,1,1.57,1.55,2.28a1.1,1.1,0,0,1,0,1.51c-2,3-3.64,6.21-6,8.94a7.76,7.76,0,0,1-5.45,2.93c-4.55.33-8.85-.94-13.18-2a61.56,61.56,0,0,0-11.27-2.13c-1.15-.07-2.24-.43-3.52-.46a7.14,7.14,0,0,0,2.32,1.92c2.82,1.73,5.75,3.31,8.51,5.14,5.34,3.56,11.06,6.5,16.4,10.05.33.22.64.47,1,.69,1.82,1.15,1.69,2.82,1.29,4.62a4,4,0,0,0,.1,2.79,2.55,2.55,0,0,1-.21,2.62,14.17,14.17,0,0,1-1.87,2.67c-1.25,1.21-1.85,2.81-2.82,4.19a3.22,3.22,0,0,1-.92.92,13,13,0,0,0-2.16,1.38,1.81,1.81,0,0,1-2.11.14,7.31,7.31,0,0,1-1.7-1.16,3.55,3.55,0,0,0-1.26-.88c-2.52-.64-4.55-2.21-6.54-3.72-4.79-3.63-9.58-7.28-14.14-11.2-1.13-1-2.32-1.86-3.53-2.73-4-2.88-7.58-6.28-11.34-9.46a45.74,45.74,0,0,0-4.3-3.42,33.39,33.39,0,0,1-6.39-5.94,5.09,5.09,0,0,1-.9-4.21,23.89,23.89,0,0,1,.92-3.46,1,1,0,0,1,.35-.57c1.19-.71,1.27-1.92,1.56-3.09,1-4.08,3.87-6.47,7.58-8,.27-.11.59-.28.82-.09,1.47,1.21,3.37.95,5,1.47,3.16,1,6.32,2,9.54,2.68,5.19,1.15,10.36,2.43,15.71,2.71a48.92,48.92,0,0,1,4.91.74C291.28,237.64,291.48,237.67,291.73,237.27Z"/><path class="cls-2" d="M420.64,139.71a7.45,7.45,0,0,1-4.43-.68,2.4,2.4,0,0,1-1.17-1.16c-1.72-3.26-1.35-6.62-.66-10a10.39,10.39,0,0,0,.48-3.71c-.12-.84.31-1,.95-1a14.81,14.81,0,0,1,1.85.38,45.18,45.18,0,0,0,7.52.73,46.33,46.33,0,0,1,5.11.53,17.54,17.54,0,0,0,4.28.38,2.54,2.54,0,0,1,1,0c2.74.94,5.67.6,8.47,1.24a12.63,12.63,0,0,0,3.07.28c4.05-.06,7.92,1.18,11.88,1.67a33,33,0,0,1,6.73,1.33,17.52,17.52,0,0,0,6.44.73,6,6,0,0,1,3.65.72c.66.42,1.45.22,2.14.58,1.16.59,1.37.85.71,1.89a12.9,12.9,0,0,0-1.7,6.05,7.72,7.72,0,0,0,.05,2.4c.29,1.35-.66,2.4-.84,3.63,0,.25-.32.31-.55.31-1.41,0-2.84.34-4.21-.1a22.13,22.13,0,0,0-3.5-.7,95.83,95.83,0,0,0-11.57-1.37c-.56,0-.77.14-.95.69a10.48,10.48,0,0,0-.34,2.2c-.31,3.19-1.09,6.32-1.22,9.53s-.88,6.23-1.2,9.36c-.53,5-1.5,9.84-1.92,14.8-.27,3.19-.64,6.36-1,9.53a3.45,3.45,0,0,1-2.91,2.95,4.64,4.64,0,0,0-.84.18,11.12,11.12,0,0,1-6.72.48c-1.81-.37-3.65-.17-5.47-.56a5.34,5.34,0,0,1-4.48-5.62c.06-3.34.56-6.61.92-9.91.33-3,.65-6,1.11-9,.53-3.51.93-7,1.28-10.56.32-3.3.63-6.61,1.13-9.89.28-1.81.71-3.59,1.16-5.37.17-.69-.06-1-.65-1.08a8.2,8.2,0,0,0-1.85-.37,23.11,23.11,0,0,1-7.9-1.23A12.34,12.34,0,0,0,420.64,139.71Z"/><path class="cls-2" d="M585.83,214.33a15,15,0,0,1,3.33,4.13,58.67,58.67,0,0,0,3.91,5.87,20.27,20.27,0,0,1,3.13,6.46,2.51,2.51,0,0,1-1.34,2.94,36,36,0,0,0-8.14,4.36,167.45,167.45,0,0,1-15.88,9.6c-3,1.63-6,3.4-9,5.05-3.22,1.76-6.46,3.48-9.59,5.41a42,42,0,0,0-8.26,6.39,8.4,8.4,0,0,1-1.66,1.23,1.9,1.9,0,0,1-2.85-.54c-2.2-3.21-4.72-6.21-6.47-9.72-.85-1.69-1.86-3.3-2.79-4.94a1.8,1.8,0,0,1,.35-2.55,19.62,19.62,0,0,1,5-3.61c5.55-3.15,10.78-6.77,16.11-10.25,3.16-2.07,6.45-3.95,9.69-5.88q6.12-3.67,12.28-7.28a11.25,11.25,0,0,1,2.84-1.19,8.82,8.82,0,0,0,2.53-1.06c1.64-1.07,3.36-2,5.07-2.89A3.8,3.8,0,0,0,585.83,214.33Z"/><path class="cls-3" d="M219.16,128.51a7.53,7.53,0,0,0,2.1.75c3.11.69,6.22,1.33,9.3,2.15a4.68,4.68,0,0,1,2.29,1.1c1.59,1.82,3.84,2.49,5.88,3.48,5.42,2.62,10.92,5.1,16.37,7.68,4.15,2,8.22,4.11,12.7,5.28a11.76,11.76,0,0,0,3.15.76,6.73,6.73,0,0,1,4,.66,1,1,0,0,0,1-.13c1.47-.86,1.89-1.76,1.19-3.31-.84-1.88-1.2-3.9-2-5.8-1.26-2.82-2.15-5.8-3.14-8.74-.68-2-1.38-4-1.87-6.08-1.6-6.8-2.75-13.7-5.17-20.31-1.62-4.38-3.86-8.45-5.78-12.68a3.3,3.3,0,0,0-3.1-2.06c-1-.05-1.41.11-1.46,1.13a1.61,1.61,0,0,1-1,1.46c-1,.57-1.93,1.24-2.93,1.8a3.14,3.14,0,0,0-1.54,3.67,8.84,8.84,0,0,0,.36,1.5,51.46,51.46,0,0,1,1.55,7,38,38,0,0,0,1.21,5.87c1.11,3.14,2.16,6.29,3.12,9.48a26.79,26.79,0,0,1,1.09,7.06c-.21,0-.34,0-.42,0-4-2.49-8.52-4-12.76-6.05s-9-3.32-13.53-5.07c-.92-.36-1.91-.81-2.84-.36-1.33.63-2.87,1-3.88,2.14a9.17,9.17,0,0,0-2.21,3.24,6.26,6.26,0,0,1-1.76,2.51C218.31,127.38,218.3,128,219.16,128.51Z"/><path class="cls-3" d="M528.78,536.29c-1.66-1.67-3.34-3.32-5-5-2.52-2.6-5-5.27-7.62-7.75-3-2.8-5.89-5.64-8.63-8.67-6.31-7-12.8-13.84-19.73-20.23a3.22,3.22,0,0,0-.56-.41c-2.57-1.48-3-1-3.73,1.44-1.59,5.5-1.84,11.19-2.35,16.83-.27,3-.19,6-.31,9-.2,4.88-.77,9.73-.77,14.61a7.54,7.54,0,0,1-.69,2.83,15.9,15.9,0,0,0-1.13,4c-.24,1.87-.67,3.72-.87,5.6a16.75,16.75,0,0,0-.5,3.74,2.49,2.49,0,0,0,3.35,2.3c.38-.11.76-.37,1.16-.24A3.71,3.71,0,0,0,484,554a27.72,27.72,0,0,1,5.15-1.21c1.39-.23,1.48-.49.91-1.77a1.78,1.78,0,0,1-.21-.64,29,29,0,0,1,.07-5.51c.51-2.52,1.54-4.91,1.79-7.5.18-1.94.8-3.85.83-5.78.06-3.88,1-7.62,1.4-11.48a.91.91,0,0,1,.83.56,25.48,25.48,0,0,0,3.74,4.49,53.46,53.46,0,0,1,4.33,4.45,72,72,0,0,0,10.5,10.66,8.76,8.76,0,0,0,4.29,2.05c.56.08,1.25.25,1.64-.24,1.16-1.45,3-1.67,4.49-2.41a8.24,8.24,0,0,1,4.62-1.14,1.8,1.8,0,0,0,.67-.15c.9-.27,1-.62.49-1.34A8.42,8.42,0,0,0,528.78,536.29Z"/><path class="cls-3" d="M205.5,403.93c2.55-2.95,5.06-5.94,7.6-8.9,1-1.13,2.23-2,3.13-3.2,3.41-4.57,7.63-8.42,11.32-12.74a1.69,1.69,0,0,0,.38-1.86,1.89,1.89,0,0,0-2.09-1.18,55.77,55.77,0,0,1-7.53-.7c-4.27-.4-8.59-.37-12.84-1.06-2.72-.45-5.47-.62-8.2-.91a92.92,92.92,0,0,0-10.79-.92c-3.86.06-7.71.14-11.56.07a35.79,35.79,0,0,1-6.7-.32c-1.51-.32-2.17.42-1.62,1.89a13.84,13.84,0,0,1,.64,2.67c.27,1.64.58,3.27,1,4.88a3.72,3.72,0,0,0,3.27,3.09,46.78,46.78,0,0,0,5.64.54c3.32,0,6.64.29,10,.11a80.19,80.19,0,0,1,11.7.27c.83.08,1.72-.19,2.46.47a4.37,4.37,0,0,1-1,1.59c-2.57,3.09-5.24,6.09-7.51,9.43-1.45,2.14-3.09,4.13-4.74,6.12-1.86,2.25-3.93,4.32-5.64,6.7a3.45,3.45,0,0,0-.08,4.53,74.22,74.22,0,0,1,4.17,6.52,5,5,0,0,0,1.28,1.61c.4.34.83.46,1.18-.05a46.29,46.29,0,0,1,4-4.53c1.59-1.81,3.17-3.63,4.82-5.39C200.36,409.81,203,406.89,205.5,403.93Z"/><path class="cls-3" d="M451.43,559.44c-.55-.26-.6-.8-.79-1.27-1.55-3.84-3.43-7.52-5.26-11.22s-3.86-7.55-5.75-11.35c-2.75-5.56-5.47-11.13-8-16.8-.77-1.74-1.33-3.54-2-5.3-1.08-2.75-1.08-6-3.53-8.16,0,0-.05-.11-.09-.15a2.28,2.28,0,0,0-3.68-.23,5.52,5.52,0,0,0-1,1.57c-1.69,3.71-3.29,7.47-5.17,11.07-4.92,9.44-8.91,19.28-13,29.09a47.5,47.5,0,0,1-3,6.76,35,35,0,0,0-2.3,4.63c-1.1,2.6-.74,3.23,2.08,3.63h.35c2.74.31,5.51-.18,8.25.33.37.07.57-.15.75-.52,1.77-3.73,3.84-7.31,5.54-11.07.69-1.52,1.35-3,2-4.56,1.47-3.31,3.26-6.46,4.57-9.84a23.15,23.15,0,0,1,2.34-4.91c.86,3,2.49,5.31,3.44,7.88a143.15,143.15,0,0,0,6.71,15.09,48.23,48.23,0,0,0,3.59,6.28c1,1.42,2.71,2.26,3.91,1.85a22.31,22.31,0,0,1,8.46-1.22,8.88,8.88,0,0,0,1,.05c.53,0,.79-.47,1-.85S451.75,559.58,451.43,559.44Z"/><path class="cls-3" d="M371.45,548.57c-1.23-5.59-2.34-11.19-3.19-16.85a98.2,98.2,0,0,1-1.07-12,64.08,64.08,0,0,0-1.53-13.13,22.7,22.7,0,0,1-.49-9.86,1,1,0,0,0-.47-1.14,3.3,3.3,0,0,0-2.92.21c-1.44,1.33-3.2,2.29-4.44,3.82-.54.66-1.68.29-1.85,1a4.33,4.33,0,0,1-1.27,2,12,12,0,0,0-2.37,3.16,25,25,0,0,1-5.92,7.32,71.2,71.2,0,0,0-8.24,9,60.45,60.45,0,0,1-5.83,7.23c-1,1-2,2.09-2.93,3.17a54.2,54.2,0,0,0-6.74,9.11c-.53.95-.56,1.06.56,1.46a4.7,4.7,0,0,1,2,1.22c1.3,1.5,3.23,1.86,5,2.55a2.26,2.26,0,0,0,1-.07,9.62,9.62,0,0,0,5.31-3.24,86.45,86.45,0,0,0,6.85-7.72c.9-1.19,1.77-2.41,2.78-3.5a57.9,57.9,0,0,0,6-7.54,6.59,6.59,0,0,1,2.16-2.27,8.17,8.17,0,0,1,.21,2.38,17.93,17.93,0,0,0,.09,2.75,100.54,100.54,0,0,0,2.27,11.28,13.08,13.08,0,0,1,.36,1.5,89.43,89.43,0,0,0,3.39,12.78,4.65,4.65,0,0,0,4,3.4c2.53.52,5.11.56,7.66.92.79.12.9-.29.86-1A49.79,49.79,0,0,0,371.45,548.57Z"/><path class="cls-3" d="M254,443.64a45.88,45.88,0,0,1,3.43-6.36,20.3,20.3,0,0,0,1.62-2.83c.31-.61.51-1.27,1.25-1.56.52-.2.54-.7.5-1.17a2.09,2.09,0,0,0-1.64-1.8,7.77,7.77,0,0,0-3.58-.33c-1.35.2-2.7.49-4,.78-2.75.61-5.47,1.35-8.23,1.84a164.44,164.44,0,0,0-19.73,4.68c-3.65,1.11-7.54,1.57-10.81,3.79a2,2,0,0,1-.64.23c-3.52,1-7,2.09-10.57,3.1-1.27.37-1.53.74-.84,1.86a40.13,40.13,0,0,1,1.7,3.65,12.32,12.32,0,0,0,2.59,3.75,3.36,3.36,0,0,1,.56.86c.39.75.7,1.67,1.73.62.06-.06.22,0,.34,0,3.49-.61,7-1.11,10.44-2,5.81-1.57,11.77-2.5,17.64-3.84a8.61,8.61,0,0,1,3.28-.42c-.16.33-.3.63-.46.92-1.69,3.14-3.82,6-5.37,9.23a70.79,70.79,0,0,1-3.19,6.69c-1.94,3.14-2.75,6.67-3.91,10.08a2.54,2.54,0,0,0,.8,2.91c1.39,1.37,3.25,2.2,4.33,3.91a26.25,26.25,0,0,0,1.89,2.67c.83,1,1.83.89,2.48-.26a20.63,20.63,0,0,0,1.09-2.15c1.24-2.86,2.87-5.58,3.46-8.71a1.31,1.31,0,0,1,.35-.76,8,8,0,0,0,1.33-2.17c1.42-2.32,2.07-5,3.14-7.44C247.81,456.73,250.78,450.13,254,443.64Z"/><path class="cls-3" d="M682.09,327.54a108.21,108.21,0,0,1-9.36-7c-2.77-2.15-5.56-4.25-8.49-6.16-2-1.31-4.08-2.58-6.09-3.92a4.64,4.64,0,0,1-1.95-1.76c3.67-.92,7.17-2,10.66-3.16a55.22,55.22,0,0,0,8-3.07,87.9,87.9,0,0,0,9-3.59,3,3,0,0,0,.81-.62c2.19-2,2-4.63,1.85-7.24h0a11.92,11.92,0,0,0-.18-2.92,3.31,3.31,0,0,1,0-1.53c.29-1.24.09-1.39-1.2-1s-2.61,1.19-4,1.48c-2.81.58-5.51,1.58-8.25,2.38-4.08,1.19-8.22,2.17-12.2,3.64-4.37,1.6-8.51,3.75-12.94,5.18s-8.44,3.32-12.89,4.22c-2.51.51-4.66,1.9-7.08,2.62-1,.31-1.23,1.09-.68,2.05a6.81,6.81,0,0,0,2.41,2.42c1.24.72,2.56,1.27,3.85,1.89a91.63,91.63,0,0,1,12.77,7.47c2.54,1.77,5.19,3.4,7.8,5.08,3.28,2.11,6.72,4,10.08,6,5.24,3.1,10.43,6.29,15.62,9.47a.7.7,0,0,0,.92-.06,1.33,1.33,0,0,0,.51-1,20,20,0,0,1,1.51-6.5,4.9,4.9,0,0,0,.39-1.67C683,329.16,683.12,328.18,682.09,327.54Z"/><path class="cls-3" d="M175.74,194.87a3.86,3.86,0,0,0,.68.11c2.29.19,4.56.41,6.84.69a84.68,84.68,0,0,0,10.79.64c5,0,10,.36,15,.71,3.38.24,6.72.75,10.12.85a67.19,67.19,0,0,1,10.52,1.52,16.26,16.26,0,0,0,3,.7,8.17,8.17,0,0,1,4,.54,1,1,0,0,0,1-.08c1.49-.81,1.76-1.53,1.1-3.08a7.73,7.73,0,0,0-.69-1.38c-2.56-3.87-4.55-8.1-7.54-11.69a29.38,29.38,0,0,1-2.24-3.26c-2.47-3.93-4.82-7.95-7.59-11.69a38.78,38.78,0,0,0-3.5-4.68,33.05,33.05,0,0,1-4.88-6.21A27.25,27.25,0,0,0,205,150.4a1.63,1.63,0,0,0-2.31,0,2.63,2.63,0,0,0-.76,1.31,10,10,0,0,1-2.54,4.25,6.31,6.31,0,0,0-1.07,1.34c-.45.77-.77,1.55.16,2.29.28.23.37.7.54,1.06.91,2,1.81,4,2.72,6a50.72,50.72,0,0,0,3.9,6.49c2.1,3.22,4,6.56,6.42,9.59.83,1,1.93,2,2.27,3.56-1.73-.16-3.37-.25-5-.49a95.89,95.89,0,0,0-10.42-1.12c-3.67-.14-7.34-.23-11-.71a37.44,37.44,0,0,0-4.62-.45,5.06,5.06,0,0,0-3.7,1.51c-2.33,2.21-3.39,5.16-4.78,7.92C174.18,194.22,174.37,194.52,175.74,194.87Z"/><path class="cls-3" d="M673.21,362.39a2.89,2.89,0,0,1-1.8.41c-3.91,0-7.81-.06-11.71.32-2.85.29-5.72.32-8.57.68-2.68.33-5.37.59-8.06.7-4.76.2-9.54.19-14.3.39-3.73.16-7.44.47-11.16.79a4.22,4.22,0,0,0-3.14,1.17c-.46.55-.74,1.1.11,1.52.37.18.42.47.51.81a6.68,6.68,0,0,0,1.77,2.92c.67.71,1.3,1.45,2,2.17,2.9,3.12,5.69,6.33,8.87,9.18a51.72,51.72,0,0,1,4.46,4.05c2.92,3.32,5.66,6.8,8.8,9.92a88.34,88.34,0,0,1,8.54,9.69c1,1.32,2.27,2.42,3.25,3.78.65.9,2,1.16,2.39,2.74,1.42-1.86,2.64-3.41,3.79-5a2.51,2.51,0,0,0,.32-1.32,7.79,7.79,0,0,1,.9-2.95,16.65,16.65,0,0,0,.76-1.92,2.23,2.23,0,0,0-.77-2.61A18,18,0,0,0,657.2,398c-2-1.14-4-2.28-5.23-4.36-.68-1.12-1.37-2.25-2.11-3.34-2.78-4.06-5.67-8-8.93-12.17.72-.07,1.22-.15,1.72-.16a52,52,0,0,0,6.36-.26c2.28-.32,4.59-.27,6.87-.51,4.38-.46,8.73-1.29,13.16-1.33a7.12,7.12,0,0,0,4.08-1.12c.78-.54,1.21-1,.72-1.93a2.89,2.89,0,0,1-.07-2.34,34.41,34.41,0,0,0,1.68-6.1,2.14,2.14,0,0,0-.52-1.87A1.2,1.2,0,0,0,673.21,362.39Z"/><path class="cls-3" d="M309,471.76c-.27-.57-1.52-1.52-1.87-1.32-1.18.66-2.62.47-3.76,1.16-1.67,1-3.42,1.88-5,3-1.83,1.28-3.68,2.54-5.41,4-2.2,1.8-4.88,2.75-7.38,4.05a127.07,127.07,0,0,0-12.66,7c-3.55,2.42-7.32,4.52-10.93,6.85-2.47,1.59-4.84,3.32-7.24,5-.94.67-1,1-.44,2a1.42,1.42,0,0,0,1.35.88c.66,0,1,.36,1.42.8,1.29,1.39,2.84,2.5,4.07,4,.53.64,1.11.57,1.77,0,3.74-3.29,8.12-5.58,12.52-7.79,2.36-1.2,4.66-2.5,6.88-3.91s4.55-3.1,6.83-4.65a1,1,0,0,1,1-.26c-.19,1.29-.31,2.54-.56,3.77-.65,3.27-.81,6.6-1.19,9.9-.3,2.62-.45,5.26-.75,7.88A55.41,55.41,0,0,0,287,523c0,.58.26,1.28,0,1.7-.78,1.38.16,2,1,2.7A26.55,26.55,0,0,0,295,531.3c.43.16.87.21,1.18.63.91,1.21.92,1.19,2.08.5.7-.42,1.53-.77.69-1.8-.1-.12,0-.44.05-.66.47-2.35.77-4.76,1.34-7.05a83.59,83.59,0,0,0,1.51-9.49c.63-5,1.08-10,1.69-15,.39-3.12.88-6.24,1.44-9.34.84-4.67,1.79-9.33,2.67-14a2.8,2.8,0,0,1,1-2A1,1,0,0,0,309,471.76Z"/><path class="cls-3" d="M643.74,431.76a.74.74,0,0,0-1.08,0,1.67,1.67,0,0,1-1.61.41c-2.51-.58-5.1-.75-7.62-1.25-4.21-.83-8.36-2-12.56-2.87q-7-1.5-14-2.87c-4.78-.95-9.47-2.28-14.26-3.18-2.28-.43-4.7-.45-6.77-1.75a.76.76,0,0,0-.34,0,3.2,3.2,0,0,0-3,3.88,9,9,0,0,0,1.22,2.83c1.06,1.77,2.16,3.52,3.13,5.35,1.07,2,2.18,4.06,3.44,6a131,131,0,0,1,8.82,16.37c1.49,3.17,3.21,6.22,4.76,9.36,1.66,3.36,3,6.86,4.53,10.24.9,1.93.84,2,2.76,1.15a6.1,6.1,0,0,0,1.38-1c1.86-1.6,3.72-3.22,5.45-5a1.3,1.3,0,0,0,.31-1.8c-.73-1.42-1.38-2.89-2-4.36a33.67,33.67,0,0,0-2.18-4.86,120.12,120.12,0,0,1-7.27-12.9c-1.14-2.29-2.49-4.49-3.8-6.85,1-.39,1.73.1,2.52.15a78.18,78.18,0,0,1,9.84,1.6c3.15.61,6.2,1.64,9.39,2.07,2.16.29,4.31.68,6.47.89a14.1,14.1,0,0,1,4.22.62,2.26,2.26,0,0,0,2.65-1.09c.65-2,2.07-3.53,2.95-5.38.76-1.61,2.29-2.73,2.83-4.5C644,432.49,644.17,432.12,643.74,431.76Z"/><path class="cls-3" d="M638.59,229.91c-4.68,3.89-9.54,7.56-14.1,11.6a21.08,21.08,0,0,0-2.31,2.32,1.84,1.84,0,0,0,.91,3.13,9.6,9.6,0,0,0,2.87.49,21.94,21.94,0,0,1,5.09.73c2.62.64,5.27,1.13,7.89,1.74,3.85.9,7.77,1.47,11.57,2.64a86.64,86.64,0,0,0,12,3c2,.3,4,.42,6,.79,3.72.7,7.43,1.38,11.2,1.76a17.65,17.65,0,0,0,2.06.07c.51,0,1.07-.38.93-.8-.24-.72.22-1.28.2-1.91a54,54,0,0,0-1.16-7.8c-.25-1.35-.62-1.54-2-1.54a13,13,0,0,1-4.75-.63,10.9,10.9,0,0,0-2.37-.43,178.46,178.46,0,0,1-19.61-3.48c-.77-.19-1.58-.29-2.37-.43-1.52-.27-3.1-.14-4.62-.7a1.11,1.11,0,0,1,.55-1c1.36-1.14,2.72-2.29,4.12-3.38,2.13-1.66,4.33-3.23,6.45-4.89,4.88-3.82,9.32-8.17,14.37-11.79,2-1.43,2.21-3.1,1.19-5.44a13.3,13.3,0,0,1-1.35-3.89,7.86,7.86,0,0,0-.75-2.46c-1-2.25-2.12-2.5-3.9-.85-4.51,4.18-9.11,8.23-13.93,12.05C648,222.58,643.18,226.1,638.59,229.91Z"/><path class="cls-3" d="M166.77,343.5c.46-.23,1-.4,1.41-.64,3.28-1.76,6.6-3.45,9.81-5.32,1.49-.87,3.1-1.45,4.55-2.4,5.22-3.44,10.39-7,16.18-9.49,3.65-1.56,7.1-3.52,10.75-5.07.66-.28,1.27-.83,2.09-.37.26.15.54-.07.76-.28a2.19,2.19,0,0,0-.66-3.76c-1-.44-1.94-1-2.91-1.51a49,49,0,0,0-8.46-3.8c-2.36-.71-4.68-1.58-7-2.52-5.26-2.16-10.63-4-16-6-3.34-1.23-6.76-2.24-10.09-3.49-2.25-.84-4.45-1.82-6.74-2.58-1.41-.48-2.82-1-4.24-1.39s-2.14.23-1.79,1.67a2.36,2.36,0,0,1,.18,1.17,24.64,24.64,0,0,0-.22,6.86c.06,1.5.27,3.22,1.52,4.07a10.23,10.23,0,0,0,5.22,2.07,10.23,10.23,0,0,1,4.19.72c1.48.77,3,1.31,4.54,2a33.43,33.43,0,0,0,7.95,2.69,32.74,32.74,0,0,1,7,2.22c.54.24,1.19.4,1.43,1.09a14.81,14.81,0,0,1-2.47,1.33,89,89,0,0,0-11.58,6c-1,.71-2,1.48-3.12,2.13s-2.27,1.33-3.32,2.13c-2.32,1.78-4.62,3.6-7,5.24a3.59,3.59,0,0,0-1.66,2.82,8.71,8.71,0,0,0,1.32,5.4h0a14,14,0,0,0,.62,2c.48,1,2.19,1.44,2.73.69A11.84,11.84,0,0,1,166.77,343.5Z"/><path class="cls-3" d="M156.25,265.19c-.48,1.82.48,2.87,2.38,2.72.91-.07,1.8-.26,2.71-.31,2.81-.17,5.54-.87,8.33-1.2,2.5-.3,5-.48,7.5-1a42.17,42.17,0,0,1,7-.71c1.94-.07,3.87-.3,5.81-.53,1.68-.2,3.2-.94,4.84-1.15A101.24,101.24,0,0,0,209,260.26a4.39,4.39,0,0,1,3-.07.92.92,0,0,0,1.31-.47c.28-.72.87-.83,1.47-1a4.33,4.33,0,0,0,1.58-.63c.7-.59.77-1,.15-1.73a14.37,14.37,0,0,0-1.46-1.46,52.76,52.76,0,0,0-6.15-4.65,79.91,79.91,0,0,1-8.13-6.37c-1.82-1.49-3.52-3.13-5.31-4.66-3.89-3.33-8.05-6.29-12.23-9.23-2.91-2.05-5.66-4.38-9-5.65a10.29,10.29,0,0,1-3.84-2.81,11.69,11.69,0,0,1-1-1.39c-.51-.71-1.12-.76-1.65-.09a1.76,1.76,0,0,0-.4.93c-.17,2.64-1.32,5-2.29,7.35-.44,1.06-.46,1.09.69,1.61a3.19,3.19,0,0,1,1.06.85,130.12,130.12,0,0,0,9.41,9.08c3.81,3.32,7.47,6.8,11.75,9.55a2.38,2.38,0,0,1,1.13,1.38c-2,.49-3.9.9-5.77,1.42a18.2,18.2,0,0,1-5.42.84,11.94,11.94,0,0,0-3.55.63c-2.65.73-5.29,1.48-7.95,2.15-2.11.53-4.25.93-6.37,1.41a2.51,2.51,0,0,0-1.8.89,8.64,8.64,0,0,1-1.75,1.87,1.48,1.48,0,0,0-.43,1.83A5.17,5.17,0,0,1,156.25,265.19Z"/><path class="cls-3" d="M592.89,494.56c-2.25-1.37-4.6-2.59-6.93-3.82-3.35-1.76-6.88-3.19-10-5.34-1.75-1.2-3.49-2.4-5.35-3.45-4.1-2.31-8.35-4.35-12.29-7-4.83-3.2-9.81-6.18-14.64-9.4a3.78,3.78,0,0,0-2.88-.53c-.67.08-.94.52-.82,1.24.22,1.24.42,2.48.54,3.74.25,2.62.64,5.22.92,7.84.16,1.6.67,3.12,1,4.68.75,3.88,1.34,7.82,2.41,11.61a100.22,100.22,0,0,1,3.38,20.48,61.21,61.21,0,0,0,1.05,8.18,4.47,4.47,0,0,0,1.9,2.56c.4.32.72.31,1.18-.1a15.7,15.7,0,0,1,8-4.4c1.25-.21,1.54-.77,1.22-1.93-1.63-5.93-2.3-12-3.42-18.06-.3-1.59-.28-3.2-.5-4.79-.36-2.71-.72-5.42-1.31-8.18,2.24,1.57,4.66,2.63,6.94,3.93,3.49,2,7,4,10.55,5.83,2.38,1.24,4.9,2.22,7.31,3.43a19,19,0,0,0,4.39,1.45c.67.15,1.33.16,1.64-.53.62-1.39,2-2.17,2.63-3.57a3.45,3.45,0,0,1,2.92-2.16c.41,0,1-.15,1-.75S593.28,494.8,592.89,494.56Z"/><path class="cls-3" d="M276.81,78.48c.41.18.92.06,1.27.45a22.39,22.39,0,0,0,4.85,3.55c3.78,2.37,6.92,5.49,10.23,8.4,1.9,1.66,3.78,3.36,5.79,4.89,1.56,1.18,3.19,2.27,4.67,3.53,2.23,1.9,4.4,3.88,6.64,5.74a141.8,141.8,0,0,1,10.38,9.82,3.41,3.41,0,0,0,3,.88c.62-.06.94-.43,1-1.16a77.13,77.13,0,0,0-.44-11.17c-.22-2.75-.54-5.48-.62-8.23-.17-5.76.34-11.49.43-17.24,0-1.91-.39-3.77-.43-5.66,0-1.33.35-2.64.26-3.94-.17-2.29-.67-4.55-.75-6.84-.07-2-.81-4.07-.28-6.15a2.1,2.1,0,0,0-.66-1.72,1,1,0,0,0-1.7,0,5,5,0,0,1-1.4,1.47,8.53,8.53,0,0,1-5.37,1.49c-1.7-.15-1.92.13-1.82,1.79.1,1.94.2,3.89.34,5.84.19,2.7-.1,5.41,0,8.1.23,6-.11,12,0,17.94a2.58,2.58,0,0,1-.18,1.65c-5.57-4.58-10.38-9.79-15.8-14.34-2.9-2.44-5.78-4.9-9.26-6.51-1.6-.74-3.34-.55-5-.66a.66.66,0,0,0-.48.15c-1.18,1.25-2.94,1.81-3.94,3.29a4.68,4.68,0,0,1-1.33,1.33A1.88,1.88,0,0,0,275.09,77C275.22,77.86,276.08,78.17,276.81,78.48Z"/><path class="cls-3" d="M353.78,53.6c1.19,1.39,2.33,2.83,3.51,4.24,3.35,4,5.71,8.72,8.74,13,3.64,5.09,6.74,10.54,10.17,15.78,1.54,2.34,2.42,5.09,4.49,7.11.88.85,1.08,1,2.13.53a2.53,2.53,0,0,0,1.3-1.72c1-3.06,1.46-6.25,2.35-9.33.76-2.64,1-5.41,2-8a98.84,98.84,0,0,0,3.14-10.71c.85-3.09,1.32-6.28,2-9.42A142.09,142.09,0,0,1,398,39c.32-.93.5-1.88.73-2.83.17-.72,0-1-.8-1.1a28.81,28.81,0,0,0-8.29.45,3.1,3.1,0,0,0-2.48,2.67,21.8,21.8,0,0,1-.6,2.51c-.71,2.59-1.51,5.17-2.16,7.78-1.07,4.33-2.38,8.6-3.64,12.89-.65,2.24-1.43,4.46-2.24,7-.23-.31-.34-.44-.43-.58-3.74-6.19-8-12.06-12-18.08-1.34-2-2.86-3.89-4.13-5.93-2.16-3.47-2.63-3.75-6.71-3.1l-.17,0a25.73,25.73,0,0,0-6.25,1.87c-1.49.73-1.74,1.54-1,3A42.83,42.83,0,0,0,353.78,53.6Z"/><path class="cls-3" d="M427.31,38.45a13.53,13.53,0,0,0,2.48,4.7A5.5,5.5,0,0,1,431,45.37c.27.88.49,1.77.83,2.62a114.37,114.37,0,0,1,3.61,11.31c1.72,6.06,3.11,12.22,4.38,18.39.86,4.21,1.6,8.44,3.24,12.44.59,1.42,1.43,1.84,2.8,1.27a5.67,5.67,0,0,0,2-1.6,44.74,44.74,0,0,0,5.21-7.68,76.59,76.59,0,0,1,6.21-9.52A82.56,82.56,0,0,0,468,58.4a160.31,160.31,0,0,1,9.09-15.64,12.59,12.59,0,0,0,.79-1.33.78.78,0,0,0-.37-1.15,6.4,6.4,0,0,0-1.23-.61,53.94,53.94,0,0,0-6.88-1.57,1.63,1.63,0,0,0-1.85.86c-.69,1.12-1.49,2.17-2.28,3.23-2.93,4-5.09,8.46-7.52,12.75-1.58,2.8-2.94,5.72-4.53,8.51-1.16,2-2.53,3.91-4,6.15-.21-.61-.28-.77-.32-.93-1.16-4.38-2-8.83-3.32-13.18-1.18-3.9-2.23-7.84-3.59-11.67-.88-2.48-2-4.88-2.74-7.42-.69-2.28-2.05-3.22-4.41-3.32a4.88,4.88,0,0,1-1.51-.25,13.39,13.39,0,0,0-7.45-.07c-.94.2-1.27.84-.72,1.41C426.39,35.39,426.75,37,427.31,38.45Z"/><path class="cls-3" d="M332.42,111.71c2.82-.74,5.69-1.33,8.25-2.89a1.6,1.6,0,0,0,.92-1.6c0-6.32-.21-12.64.25-19A104.54,104.54,0,0,0,342.31,77a1.27,1.27,0,0,1,1.2.62c2.85,3.08,5.8,6.08,8.49,9.29,3.06,3.65,6.18,7.27,9.22,10.93a2.68,2.68,0,0,0,3.16,1A19.74,19.74,0,0,1,367.7,98c1.71-.19,3.41-.47,5.11-.75,1-.17,1.27-.77.52-1.37a19.73,19.73,0,0,1-2.42-2.68c-5.05-5.81-10-11.68-14.58-17.89-3-4.13-6.28-8.07-9.53-12-2.23-2.71-4.73-5.18-6.83-8a10.6,10.6,0,0,0-3.83-3.37c-.36-.17-.91-.3-.95-.69-.1-1.25-1.2-1.4-2-1.9s-1.41-.31-1.57.71a22.29,22.29,0,0,0-.41,2.72c-.08,2.69-.09,5.38-.3,8.07a68.49,68.49,0,0,0-.33,8.09c.2,4.42.18,8.84.22,13.26,0,2.24,0,4.49.18,6.73a45.69,45.69,0,0,1,.2,6.19c-.2,3.09-.5,6.17-.68,9.26a49,49,0,0,1-.37,5.14C329.86,111.33,330.63,112.18,332.42,111.71Z"/><path class="cls-3" d="M404.37,525.75c2-3.37,4-6.72,6.09-10,1.78-2.73,3.14-5.74,5.41-8.16.83-.89.46-1.85-.72-2.19a15.89,15.89,0,0,0-1.7-.3c-1.9-.36-3.89-.16-5.75-.85a2,2,0,0,0-1.5.15,8.1,8.1,0,0,0-4.14,4c-1.66,2.95-3.18,6-4.83,8.94-1,1.87-1.92,3.79-2.77,5.74-1.25,2.9-2.77,5.68-4.27,8.46a4.52,4.52,0,0,1-1.29,1.66c-1.08-3.42-1.68-6.74-2.45-10-.4-1.73-.72-3.48-1.06-5.22-.71-3.65-1.11-7.36-2.07-11a4.32,4.32,0,0,1-.2-1.69,2.21,2.21,0,0,0-1.69-2.77c-2-.62-3.88-1.41-5.79-2.19a11.79,11.79,0,0,0-3.67-.87c-1-.06-1.14,0-1.05,1,.13,1.37.35,2.73.59,4.08.72,4,1.72,7.86,2.15,11.84.47,4.23,1.39,8.36,2.09,12.54.41,2.48,1.23,4.89,1.84,7.34,1.39,5.62,2.75,11.25,4.15,16.87a5,5,0,0,0,.87,1.86,3.09,3.09,0,0,1,.74,2.2,4.81,4.81,0,0,0,1.62,3.46,1.58,1.58,0,0,0,2.39-.26,20.3,20.3,0,0,0,2.84-6.31,9.09,9.09,0,0,1,.87-2c1.73-3.5,3.61-6.9,5.25-10.46,2.32-5,5.43-9.72,7.51-14.91A6.81,6.81,0,0,1,404.37,525.75Z"/><path class="cls-3" d="M504.72,107.48a3.82,3.82,0,0,0,2.67-1.35,29.74,29.74,0,0,1,8-7.46c.74-.44,1.42-1,2.12-1.48,3.27-2.44,6.31-5.16,9.41-7.81,3.88-3.32,8-6.4,11.56-10.07,3.21-3.29,6.34-6.66,10.27-9.15a6.25,6.25,0,0,0,1.35-1.32c.88-1.06.72-1.65-.55-2.19a2.19,2.19,0,0,0-.5-.14,4.19,4.19,0,0,1-2.5-1.37,5.09,5.09,0,0,0-3.6-1.39c-.35,0-.74,0-1,.27-.67,1-1.83,1.37-2.72,2.08-3.25,2.56-6.39,5.22-9.5,8-4,3.49-8.27,6.57-12.13,10.19-.86.81-1.85,1.5-3.06,2.48,0-1.46-.11-2.54-.1-3.63,0-2.19.5-4.33.48-6.52,0-3.79.34-7.58.28-11.37-.07-4.14.09-8.28-.39-12.39a4,4,0,0,0-1.43-3,16.83,16.83,0,0,0-7.6-3A2.34,2.34,0,0,0,503.19,49c-.06,4.93-.18,9.86-.14,14.78,0,3.19.21,6.41.4,9.62a115.85,115.85,0,0,1-1.5,27.45,12.94,12.94,0,0,0-.05,4.12C502.11,106.4,503.49,107.67,504.72,107.48Z"/><path class="cls-3" d="M603,482c-.61-1.48-1.13-3-1.76-4.48-.88-2.05-1.76-4.11-2.76-6.11-1.65-3.29-3-6.69-4.58-10-1-2.09-2.17-4-3.06-6.16-1.36-3.23-2.74-6.45-4.27-9.6-2.29-4.71-3.9-9.68-5.72-14.57-.46-1.23-.78-1.44-1.91-.75a6.28,6.28,0,0,0-1.32,1.1,22.79,22.79,0,0,0-2.56,3.24c-.66,1-2.19,1.5-2.17,2.74s.79,2.26,1.12,3.42a79.81,79.81,0,0,0,7.37,17,39.41,39.41,0,0,1,3.48,7.39,1.63,1.63,0,0,1-1.44-.25c-4-1.7-7.83-3.59-11.74-5.37-4.07-1.85-8.36-3.22-12.23-5.51a3.66,3.66,0,0,0-3.79.05,30.59,30.59,0,0,0-4.47,2.91,28.07,28.07,0,0,0-2.47,2.14c-1,1-.9,1.41.37,2a61,61,0,0,1,5.44,3c4.13,2.38,8.17,4.92,12.75,6.42a6.33,6.33,0,0,1,1.67.87,32.1,32.1,0,0,0,4.2,2.37,25.62,25.62,0,0,1,3.75,2.12,52.09,52.09,0,0,0,5,3c4.38,2.43,9.08,4.18,13.63,6.24a42.75,42.75,0,0,0,5.43,2.13,3.72,3.72,0,0,0,2.69-.05,1.77,1.77,0,0,0,.59-3A5.92,5.92,0,0,1,603,482Z"/><path class="cls-3" d="M540.67,517.33c-.48-2.83-.79-5.67-1.12-8.51-.38-3.36-.78-6.72-1.13-10.08-.29-2.73-.43-5.49-.8-8.21a89.87,89.87,0,0,1-.87-10.74c0-1.38,0-2.77,0-4.15s0-1.51-1.52-2a1.06,1.06,0,0,1-.64-.46c-.88-1.32-1.17-1.4-2.46-.77-2.21,1.08-4.4,2.18-6.61,3.25-.51.24-.83.46-.71,1.16a36.69,36.69,0,0,1,.4,4.79c.21,6,.76,11.93.75,17.91,0,1.55,0,3.11,0,4.66,0,.37.21.81-.24,1.08a2.42,2.42,0,0,1-1.15-.74c-1.42-1.16-2.78-2.41-4.27-3.47a156.13,156.13,0,0,1-14.8-12.37,2.26,2.26,0,0,0-3.07-.4,5.21,5.21,0,0,1-1.87.86,17.4,17.4,0,0,0-5.8,2.63,43.88,43.88,0,0,0,3.66,3.43A93.81,93.81,0,0,1,507,503c3.55,3.44,7.1,6.89,10.7,10.28,6.49,6.09,13.35,11.79,19.58,18.16a1.57,1.57,0,0,0,2.76-.39,1.43,1.43,0,0,1,.73-.86c1.06-.42,1.14-1.26,1.11-2.26A78.29,78.29,0,0,0,540.67,517.33Z"/><path class="cls-3" d="M674.62,348.71c-3.24-2.57-6.38-5.27-9.83-7.57-2.39-1.58-4.79-3.18-7.08-4.9a80.76,80.76,0,0,0-8.48-5.61c-3.3-1.87-6.39-4.08-9.53-6.19s-5.93-4.71-9.22-6.62c-.57-.33-1.22-.69-1.28-1.52,0-.56-.45-.77-1-.79a1,1,0,0,0-1.13.84,4.42,4.42,0,0,1-.46,1.64c-1.39,1.82-1.17,4.18-2.13,6.13a.91.91,0,0,0,.07.83,10.64,10.64,0,0,0,1.55,2.48,28.21,28.21,0,0,0,7.93,5.72,42.55,42.55,0,0,1,4.12,2.17c3.29,2,6.54,4.05,9.81,6.08a4.59,4.59,0,0,1,1.61,1.35,1.17,1.17,0,0,1-1,.46c-3.33.58-6.66,1.13-10,1.7-2.55.44-5.13.55-7.69.9-3.12.43-6.22,1-9.34,1.43-.59.08-1.08.27-1.15.82a17,17,0,0,1-1.9,4.76c-.57,1.25-.66,2.67-1.42,3.83-.41.64-.11,1.07.29,1.53a1.89,1.89,0,0,0,1.59.47,159,159,0,0,0,20.11-.93c6.34-.67,12.56-2,18.83-3,4.29-.72,8.54-1.69,12.86-2.26,1.67-.22,3.46,0,5-.92.77-.46,1-.85.39-1.52A13.54,13.54,0,0,0,674.62,348.71Z"/><path class="cls-3" d="M476.81,497.61a11.81,11.81,0,0,0-4.72.72,9.21,9.21,0,0,1-3.79,1,1.75,1.75,0,0,0-1.64,1.51c-.17.66-.3,1.33-.43,2-.43,2.31-.78,4.63-1.29,6.92-1.17,5.21-2.84,10.28-4.21,15.44a9.59,9.59,0,0,1-1,3,.69.69,0,0,1-.65-.36A101.77,101.77,0,0,1,450.84,514c-1.61-3.1-3-6.29-5.19-9.09a3.08,3.08,0,0,0-2.71-1.46,45.77,45.77,0,0,1-6.52.28,1.25,1.25,0,0,0-.66.14,3.5,3.5,0,0,0-1.81,1.54c-.26.65.45,1.11.72,1.66a6.17,6.17,0,0,0,.39.77c4.76,6.55,7.92,14,11.54,21.13a86.7,86.7,0,0,0,5.14,9.35,80.77,80.77,0,0,1,5.75,9.41c1.68,3.42,3.42,6.76,6.61,9.07.61.45,1.14.94,2,.59s1-1.08.88-1.86c-.32-3.43.49-6.72,1.22-10,.65-2.91,1.32-5.81,1.87-8.74.83-4.39,1.51-8.8,2.34-13.19.64-3.37,1.37-6.73,2.14-10.08a98.13,98.13,0,0,1,3.87-13.36C479,498.5,478.51,497.59,476.81,497.61Z"/><path class="cls-3" d="M173.73,210.63c2.11,2.09,4.26,4.13,6.51,6.07,2.95,2.56,6.38,4.49,9.43,6.91a78.9,78.9,0,0,1,8.64,7.37,34.21,34.21,0,0,0,3.56,3.25,47.58,47.58,0,0,1,4.66,4.08c2.42,2.46,4.82,4.93,7.24,7.39.77.77,1.52,1.57,2.35,2.26.44.36,1,.92,1.65.22a12.29,12.29,0,0,0,2.24-4.73,5.92,5.92,0,0,1,.53-1.53c.77-1.32.56-2.06-.6-3.13a13.75,13.75,0,0,1-1.93-2c-1.22-1.69-2.72-3.11-4.07-4.67-1.66-1.92-3.61-3.55-5.35-5.37-2.42-2.53-4.73-5.18-7.36-7.5-.45-.4-1.06-.67-1.39-1.39a4.65,4.65,0,0,1,1.76-.09,37.7,37.7,0,0,0,6.71.24c3.05-.28,6.09-.16,9.14-.23.91,0,1.81.12,2.73.09,2.3-.09,4.58-.45,6.87-.48a2.42,2.42,0,0,0,2.42-1.56,51.28,51.28,0,0,1,3.88-6.49,3.69,3.69,0,0,0,.49-1.09c.15-.54-.06-.82-.68-.89-5.31-.62-10.64-.65-16-.94-3.84-.22-7.7-.17-11.53-.52a90.76,90.76,0,0,0-15.29.26,29.32,29.32,0,0,1-7.37,0c-1.4-.24-2.95-.56-4.24.19a5.07,5.07,0,0,1-4.89.26,1.45,1.45,0,0,0-1.86.4c-.21.24-.37.55-.14.76C172.75,208.57,172.93,209.84,173.73,210.63Z"/><path class="cls-3" d="M670.87,265.37c-2.78-.69-5.53-1.51-8.31-2.19a18.59,18.59,0,0,0-2.53-.51,46.71,46.71,0,0,1-8.92-1.72,115.13,115.13,0,0,0-11.3-3,70,70,0,0,1-10.23-3c-1-.35-2.29-.4-3-1.43-.24-.32-.51-.66-1-.54s-.69.62-.72,1.07a28.24,28.24,0,0,0-.17,3.06c.1,2,.86,3.81.81,5.78a1.07,1.07,0,0,0,1,1.15c2.46.26,4.76,1.27,7.22,1.55a21.91,21.91,0,0,1,3.22.56c6.14,1.65,12.27,3.35,18.41,5A9.31,9.31,0,0,1,658,272.3c-1.44.53-2.52,1.16-3.65,1.69-3,1.43-5.91,3.26-9.3,3.95a24,24,0,0,0-6.51,2.69,42.44,42.44,0,0,1-9.56,3.76,2.27,2.27,0,0,0-1.74,2.75,12.91,12.91,0,0,0,.56,1.8,3.45,3.45,0,0,1-.74,3.68,1.71,1.71,0,0,0-.41,2,10.26,10.26,0,0,0,1.46,2.71,2.09,2.09,0,0,0,2.57.51c1.53-.78,3.07-1.59,4.65-2.21,3.76-1.48,7.28-3.42,10.89-5.18,3.41-1.66,6.78-3.4,10.07-5.28,5.74-3.28,11.68-6.16,17.69-8.92,1.6-.73,3.21-1.48,4.78-2.33s2.74-2.1,4.6-2a.61.61,0,0,0,.42-.24,3,3,0,0,0,.17-2.81,1.58,1.58,0,0,0-1.49-1.23A62.72,62.72,0,0,1,670.87,265.37Z"/><path class="cls-3" d="M556.53,137.46a4.06,4.06,0,0,0,.08,2.69c.17.59.8,1.1,1.31.8,1.33-.77,2.84-.89,4.2-1.5,5.3-2.36,10.73-4.42,15.9-7.08,1.74-.9,3.58-1.57,5.36-2.36,3.83-1.7,8-2.57,11.7-4.59a9.73,9.73,0,0,1,1.62-.58,38.49,38.49,0,0,0,13.18-7.28c.35-.3.6-.62,1.18-.35s.59-.24.49-.58a11.81,11.81,0,0,1-.6-3,.72.72,0,0,0-1.07-.71c-.66.27-1-.12-1.3-.52a12.73,12.73,0,0,1-.73-1.17,3.34,3.34,0,0,0-1.7-1.39c-.76-.28-.92.54-1.42.73l-.15.08a88.36,88.36,0,0,1-10.79,4.5,69.53,69.53,0,0,0-8.74,3.61c-1.8.88-3.55,1.88-5.42,2.62a28.27,28.27,0,0,0-3.66,1.91,21.16,21.16,0,0,1-3.88,2.23,1.66,1.66,0,0,1,.22-1.36c1.14-2.94,2.42-5.84,3.43-8.83,1.5-4.39,2.87-8.83,4.18-13.29a47.53,47.53,0,0,0,1.7-10.33,5.21,5.21,0,0,0-2.74-5.16c-1.38-.84-2.91-1.39-4.2-2.36s-1.45-1-2.14.53a5.88,5.88,0,0,0-.32,1.14c-.69,2.89-1.23,5.84-2.19,8.64-1.47,4.23-2.69,8.53-3.92,12.82-1.1,3.8-2.15,7.62-3.24,11.42-1,3.48-2.47,6.8-3.5,10.26C558.51,131.84,557.59,134.68,556.53,137.46Z"/><path class="cls-3" d="M647.87,418.21c-2.42-2.91-4.71-5.94-7-8.95a69,69,0,0,0-8.8-9.91,34.1,34.1,0,0,1-3.75-3.56c-2.32-2.77-4.61-5.58-6.95-8.34-2.89-3.41-5.27-7.24-8.56-10.34-.56-.52-.84-.44-1.26-.13s-.64.66-1,.95c-1.74,1.49-1.77,3.93-3.13,5.63a.6.6,0,0,0-.09.49c.33,1.37.3,2.84,1.21,4.07s1.78,2.66,2.8,3.92c1.62,2,3.08,4.15,4.71,6.16,2.72,3.34,4.78,7.19,8,10.12a.66.66,0,0,1,.21.79c-.29,0-.57.05-.86.05a49.61,49.61,0,0,1-6.32-.67c-4.23-.44-8.37-1.37-12.58-1.9-2.27-.29-4.52-.77-6.81-.93a3.48,3.48,0,0,0-3.73,1.82c-.49.89-1.23,1.65-1.72,2.57a6.08,6.08,0,0,1-2.63,2.88,1.5,1.5,0,0,0-.76,1.76c.1.72,1.41,1.43,1.76.94.6-.84,1.35-.65,2.15-.63,5.87.12,11.55,1.74,17.38,2.25a68.29,68.29,0,0,1,12.33,2.21c3.65,1,7.39,1.7,11,2.68a43.54,43.54,0,0,0,11.74,1.52c1.2,0,2.4-.19,3.5.55a1.74,1.74,0,0,0,1,.1c.41,0,.67-.33.52-.71C649.54,421.77,649.21,419.82,647.87,418.21Z"/><path class="cls-3" d="M155.75,285.56A9.06,9.06,0,0,0,158.1,287a65.64,65.64,0,0,1,7.63,3.12c2.06.88,4.05,1.9,6.17,2.62a112.47,112.47,0,0,1,11.22,4.4q10.6,4.95,21.42,9.42a10.17,10.17,0,0,0,4.32,1,1.15,1.15,0,0,1,1.18.52,1.3,1.3,0,0,0,2.35-1c-.42-1.76-.12-3.56-.35-5.32a3.75,3.75,0,0,0-2.2-3.24c-2.61-1.2-5.1-2.66-7.72-3.8-4-1.74-8-3.48-11.81-5.61a30.91,30.91,0,0,0-6.38-3,1.07,1.07,0,0,1-.71-.58c1.81-.56,3.63-1,5.4-1.67a203.38,203.38,0,0,1,22.29-6.45c2-.46,2.56-1.19,2.58-3.22a12.64,12.64,0,0,1,.44-3.56,13.28,13.28,0,0,0,.5-3.38c0-1.5-.59-1.92-2-1.5a18.86,18.86,0,0,0-1.79.61,58.14,58.14,0,0,1-12.45,3.28A57.29,57.29,0,0,0,184,273.81a39.74,39.74,0,0,1-7.88,2.38,47,47,0,0,0-14,4.6,23.55,23.55,0,0,1-5.74,2.18c-.59.15-1.14.24-1.29.92A1.5,1.5,0,0,0,155.75,285.56Z"/><path class="cls-3" d="M215.4,432.39c2.54-.5,5.08-.94,7.58-1.59,1.82-.47,3.63-1,5.46-1.51,4.65-1.22,9.27-2.55,13.89-3.89,2.53-.74,5.24-.69,7.67-1.86.17-.08.44,0,.66.06,1.29.07,1.93-.68,1.36-1.76a18.85,18.85,0,0,0-3.31-5,1.92,1.92,0,0,0-1.69-.6c-3,.33-5.87,1-8.84,1.29a48.29,48.29,0,0,0-8.54,1.82c-3.55,1-7.21,1.34-10.79,2.11a2.44,2.44,0,0,1-2-.22c1.36-1.82,2.67-3.49,3.89-5.22a75.73,75.73,0,0,1,6.39-7.67,94.62,94.62,0,0,0,7.64-9.3c1.52-2.1,1.86-3.87.23-6-1-1.28-1.06-3-1.72-4.47a4.37,4.37,0,0,0-2.32-2.46,22.73,22.73,0,0,1-2.7,4c-4.59,5-9.31,9.83-13.74,15a128.31,128.31,0,0,0-9.14,11.65c-1.42,2.09-2.86,4.16-4.29,6.23a57.79,57.79,0,0,1-5.14,6.46,7.28,7.28,0,0,0-1.81,4.56c-.16,2.11,1.29,3.06,3.2,2.1a3.82,3.82,0,0,1,1.57-.66,24.37,24.37,0,0,0,3.9-.62C207,434,211.19,433.21,215.4,432.39Z"/><path class="cls-3" d="M260.94,486.86a25.76,25.76,0,0,1,5.81-3c.91-.33,1.79-.76,2.68-1.18,5.3-2.5,10.31-5.53,15.45-8.34a75.69,75.69,0,0,0,8.79-5.73c.58-.43,1-.94,1.75-.29a.9.9,0,0,0,1.25-.17,1,1,0,0,0,.05-1.28,4.2,4.2,0,0,0-.37-.77c-1.32-1.72-2.54-3.5-4.58-4.58a3.81,3.81,0,0,0-3.58-.26,85.28,85.28,0,0,0-8.67,4.18c-5.86,3.31-12.16,5.72-18,9.07a3,3,0,0,1-.55.17.87.87,0,0,1,.14-.93,73.66,73.66,0,0,0,4.12-9.47A23.7,23.7,0,0,1,267,460a42.93,42.93,0,0,0,3.37-7.67,25.13,25.13,0,0,1,2.24-4,1.21,1.21,0,0,1,.7-.45c1.4-.53,1.37-.54.91-2a15.78,15.78,0,0,0-3.46-6.08,5.87,5.87,0,0,0-2.76-1.9c-2-.55-3.09.09-3.44,2.16a21.94,21.94,0,0,1-1.55,5.08c-1.63,3.74-3.93,7.14-5.47,10.92-.37.9-.91,1.74-1.19,2.67-1.05,3.58-2.75,6.92-3.91,10.47-.95,2.94-2.34,5.74-3.3,8.68-.85,2.61-2.21,5.05-2.6,7.81a1.07,1.07,0,0,1-.22.47,15.82,15.82,0,0,0-1.63,4c-.26.69-.31,1.47-.59,2.14-.63,1.46-.6,2,.38,3.05.79.89,1.06.91,2,.12.34-.31.63-.72,1.14-.71a3.41,3.41,0,0,0,1.91-.71c2.55-1.62,5.43-2.71,7.6-4.93C258.14,488,259.71,487.7,260.94,486.86Z"/><path class="cls-3" d="M184.46,365.72c4.45.32,8.9.71,13.37.89a66.47,66.47,0,0,1,7.73.54c5.6.87,11.24,1.48,16.79,2.67.6.13,1.14.26,1.54-.32s.09-1.05-.24-1.55A8.41,8.41,0,0,1,222,362a1.23,1.23,0,0,0-.64-1.3,7.7,7.7,0,0,0-3-1.33c-2.54-.46-5.1-.76-7.63-1.2-3.57-.62-7.17-.78-10.76-1.22a69.75,69.75,0,0,0-8.43-.36,3.47,3.47,0,0,1-2.22-.55,6.42,6.42,0,0,1,1.91-1.66c5.62-3.57,11.16-7.25,16.51-11.22a30.7,30.7,0,0,1,5.88-3.58c1.77-.77,2.08-1.15,1.85-2.91-.35-2.6-.73-5.19-1.11-7.78-.21-1.42-.79-1.61-2.11-.88-3.22,1.79-6.2,3.95-9.29,5.94-2.61,1.68-5.07,3.62-7.79,5.09a108.2,108.2,0,0,0-9.88,6.24c-5,3.42-10.21,6.35-15,10-2.05,1.57-3.91,3.52-6.51,4.3-.3.09-.54.41-.8.63-.81.68-.95,1.18-.57,2s1,1.31,1.88,1.08a4,4,0,0,1,2,.1,77.12,77.12,0,0,0,9.17,1.48C178.53,365.13,181.48,365.51,184.46,365.72Z"/><path class="cls-3" d="M325.7,524.14a35,35,0,0,1,3.21-3.12,52.87,52.87,0,0,0,5.58-5.62c3.46-4.29,7.46-8.07,11.17-12.13a8.86,8.86,0,0,1,1.21-1c2.29-1.82,4.81-3.35,6.84-5.5.74-.79.91-1.2.27-1.91-.87-1-1.75-2.25-2.88-2.64a27.33,27.33,0,0,0-5.42-1.63,1.19,1.19,0,0,0-1.08.33c-1.93,1.71-4,3.27-5.84,5.09s-3.88,3.94-5.92,5.8a92.58,92.58,0,0,0-7.91,7.69,24.37,24.37,0,0,1-3.83,3.84c-.38-1.13.09-2.06.07-3,0-2-.08-4,0-6,.31-4.81.68-9.61,1.08-14.41.17-2,.42-4,.74-6,.43-2.67.48-2.67-1.95-3.9l-4.76-2.38c-1.67-.82-1.93-.65-2.07,1.16a34.85,34.85,0,0,1-.49,4.09A95.16,95.16,0,0,0,312.33,495c-.21,2.8-.51,5.6-.93,8.37-.81,5.28-1.22,10.59-1.52,15.91-.23,3.95-.32,7.92-.68,11.86a7.75,7.75,0,0,0,.38,4.41c.83,1.68,1.67,1.93,3,.69,2.55-2.38,5.09-4.78,7.77-7A45.26,45.26,0,0,0,325.7,524.14Z"/><path class="cls-3" d="M616.38,160.7c-3.61,4.82-7,9.79-11,14.35a89.77,89.77,0,0,0-7.37,9.76c-.37.56-.82,1.07-.43,1.69a1.78,1.78,0,0,0,1.84,1,10.81,10.81,0,0,1,2,.12,58.1,58.1,0,0,0,7.58,0c2.46-.21,4.9-.57,7.36-.79,4.12-.37,8.19-1,12.25-1.71,5.32-.88,10.64-1.74,16-2.23,1.89-.17,3.77-.37,5.65-.58s4-.49,6-.68c1.31-.12,1.62-.49,1.1-1.73-.36-.83-.93-1.58-1.35-2.39-.69-1.32-1.36-2.66-2-4-.27-.55-.52-.72-1.26-.69-3.17.09-6.25.87-9.42.88a61.78,61.78,0,0,0-9.59.83,45,45,0,0,1-6.65.84c-2,0-3.88.41-5.81.58-1.28.12-2.57.58-4.15.19,2.59-3.38,5-6.59,7.48-9.74,3.68-4.64,6.8-9.67,10.17-14.53a29.24,29.24,0,0,0,2-3.8,3.75,3.75,0,0,0,0-3.16,21.81,21.81,0,0,0-3.91-6.05c-1.05-1.26-2.17-1.19-3.06.25a20.8,20.8,0,0,0-1,2c-.1.2-.09.5-.24.63-2,1.7-2.79,4.3-4.29,6.39s-2.69,4.39-4.07,6.57C619,156.67,617.81,158.78,616.38,160.7Z"/><path class="cls-3" d="M398.57,73.54a10.81,10.81,0,0,1-1.93,4.83c-2.42,4-3.8,8.6-6.5,12.49a.68.68,0,0,0,.35,1.12,8.66,8.66,0,0,0,2.83.58,36.31,36.31,0,0,0,6.82-.82,3.42,3.42,0,0,0,2.53-1.61,29.44,29.44,0,0,0,2.84-7.91,49.91,49.91,0,0,1,2.39-10,69,69,0,0,0,2.34-6.65,25.32,25.32,0,0,1,1.21-3.9c1.62,3.05,3.55,5.49,4.89,8.31,1.51,3.17,2.76,6.44,4.1,9.67,1.25,3,2.75,5.93,4,9,.69,1.73,2.33,1.83,3.75,2.34a.55.55,0,0,0,.47-.13c.62-.78,1.21-.41,1.78,0a2.68,2.68,0,0,0,1.77.52,4.4,4.4,0,0,1,1.35.23c.58.17,1.16.76,1.75.18s0-1.29-.1-1.93a5.73,5.73,0,0,0-.26-.64c-1-3-2.39-5.72-3.46-8.63-1.7-4.63-3.8-9.11-5.37-13.8-1.36-4.07-2.64-8.18-4.39-12.1-1.49-3.35-2.68-6.84-4.47-10.07a76.47,76.47,0,0,1-4.13-7.54,6.11,6.11,0,0,0-1.16-1.7c-.69-.75-1.19-.64-1.74.23a22.42,22.42,0,0,0-2.81,6.95c-.76,3.29-1.75,6.53-2.62,9.79q-1.56,5.82-3.27,11.58c-.92,3.1-1.33,6.38-2.84,9.3A1,1,0,0,0,398.57,73.54Z"/><path class="cls-3" d="M651,193.53a17.25,17.25,0,0,1-5.42.62,33,33,0,0,0-5.8,0,23.89,23.89,0,0,1-6.7-.1,5.77,5.77,0,0,0-2.23,0,15.41,15.41,0,0,1-4.64.14,25.86,25.86,0,0,0-5.13,0c-2.57.27-5.14-.18-7.73,0-2.81.17-5.63,0-8.45.05-1.2,0-1.81.48-1.87,1.56-.07,1.48-.17,3,.77,4.31a12.46,12.46,0,0,1,1.24,2.07,2.91,2.91,0,0,0,2.88,1.78c2.64.1,5.25.38,7.91.31,6.72-.18,13.44.19,20.15.41a1.3,1.3,0,0,1,1.17.39c-.13.52-.51.71-.8,1a119.49,119.49,0,0,0-9.64,9.59,89.85,89.85,0,0,1-10.27,10.65,1,1,0,0,0-.36,1.19,36.65,36.65,0,0,0,2.61,6.36c.81,1.32.84,1.32,1.92.31.84-.79,1.7-1.56,2.48-2.4a94.54,94.54,0,0,1,11.79-10.31c5.4-4.19,10-9.14,14.84-13.9,3.56-3.51,6.88-7.25,10.69-10.51a11.63,11.63,0,0,0,1.77-1.87,2.94,2.94,0,0,0,.47-2.62c-.21-.78-1.19-1-1.65-1.65a.71.71,0,0,0-.64,0c-.78.55-1.75.45-2.61.78a11.47,11.47,0,0,1-2.56.91A37.73,37.73,0,0,0,651,193.53Z"/><path class="cls-3" d="M272.06,102.7c1.07,4.17,2.59,8.2,3.38,12.45a50.71,50.71,0,0,0,1.68,6.14,46.09,46.09,0,0,1,1.31,6c.55,3.1.74,6.26,1.4,9.34a15.92,15.92,0,0,1,.59,5.27,3.45,3.45,0,0,0,.08,1.2,1.86,1.86,0,0,0,2.72,1.23,18.49,18.49,0,0,0,6.08-5c.66-.86,1.51-1.77,1.39-2.89a27.9,27.9,0,0,0-.73-5.45q-.87-2.79-1.64-5.61a82.44,82.44,0,0,0-3.59-10.95c-1.52-3.55-2.16-7.34-3.32-11.24a6.58,6.58,0,0,1,2.33,1.68,21.32,21.32,0,0,0,2.24,1.89c2.42,1.83,4.87,3.65,7.24,5.55,2.77,2.23,5.53,4.49,8.2,6.84a20.07,20.07,0,0,0,9.9,5.18,1.51,1.51,0,0,0,1.3-.25,21.12,21.12,0,0,1,2.43-1.59,5.29,5.29,0,0,0,1.35-1.32,2.36,2.36,0,0,0-1-3.69,4.58,4.58,0,0,1-1.41-1,75.24,75.24,0,0,0-9.18-7.54c-4.53-3.14-9-6.34-13.68-9.28a32.64,32.64,0,0,1-5.08-3.85,36.31,36.31,0,0,0-8.2-5.66c-2.77-1.46-5.41-3.18-8.25-4.54-1.11-.53-1.94-.13-2,1.13a10.53,10.53,0,0,0,.61,4.23A114,114,0,0,1,272.06,102.7Z"/><path class="cls-3" d="M471.08,66a76.85,76.85,0,0,0-7.63,10.83c-.56.93-.88,2-1.51,2.89-2,2.92-4,5.86-6.23,8.66a2,2,0,0,0,.84,3.34,45.29,45.29,0,0,0,4.59,1.45c2.22.67,3.79-.15,5.05-1.9,1.66-2.27,3.35-4.53,4.94-6.85,2.16-3.12,4.3-6.24,6.72-9.15a20.94,20.94,0,0,0,2.83-4.1,19.28,19.28,0,0,1,2.64-4.25,4.61,4.61,0,0,1,.51,2.31c0,.86,0,1.72.11,2.58.29,3.31.66,6.61.9,9.93.22,3,.22,6,.48,8.94q.29,3.41.8,6.81c.35,2.38,1.23,3.61,3.67,3.9,1.35.17,2.5,1.13,3.7,1.81a1.35,1.35,0,0,0,1.84-.28c.55-.55.69-1,.14-1.58-.17-.19-.16-.54-.23-.82a26.16,26.16,0,0,1-.61-5.29c-.09-2.06,0-4.14-.14-6.2-.27-4.91-1.54-9.75-1-14.71a.79.79,0,0,0,0-.34,20.07,20.07,0,0,1-.27-4.64c.05-3.06-.69-6-.86-9.07-.11-1.7-.3-3.43-.57-5.12a31.29,31.29,0,0,1-.63-6.32,5.18,5.18,0,0,0-1.23-3.65c-.64-.8-1.21-1-2-.44a7.61,7.61,0,0,0-2,1.89,27,27,0,0,1-4,4.3,10.57,10.57,0,0,0-2.29,2.79c-.87,1.55-1.86,3-2.77,4.54A60.73,60.73,0,0,1,471.08,66Z"/><path class="cls-3" d="M210.46,141.71c-.46,1.37.34,2,1.11,2.81a71.26,71.26,0,0,1,8.72,10.42c3.15,4.61,6,9.39,8.73,14.25,1,1.86,1.79,3.87,3,5.63a54.76,54.76,0,0,1,4.1,7.18,78,78,0,0,1,3.3,7.2c.63,1.71,1.94,1.88,3.19.55.63-.67,1.14-1.45,1.81-2.07a9.81,9.81,0,0,0,2.18-4.05,2.62,2.62,0,0,0-.54-2.85,21.75,21.75,0,0,1-3.43-5.75,24.62,24.62,0,0,0-2.78-5.15c-2.5-3.37-4.64-7-7.26-10.26a8.76,8.76,0,0,1-1.7-3.17,2.07,2.07,0,0,1,1.69.1c1.32.37,2.64.77,4,1.1,5.57,1.39,11.13,2.78,16.7,4.13,2.68.65,5.26,1.63,7.92,2.37.57.16,1.25.41,1.65,0,.84-.81,2-1.19,2.69-2.12,1.22-1.65,2.24-3.44,3.75-5.19a16.61,16.61,0,0,0-2.05-.82c-3-.65-5.86-1.63-8.78-2.51-3.79-1.14-7.64-2.12-11.35-3.48-4.37-1.6-8.8-3-13.29-4.2a50.31,50.31,0,0,1-5.48-1.5c-5-1.95-10.28-2.84-15.17-5a1.54,1.54,0,0,0-.49-.15,2.73,2.73,0,0,0-2.07.68C209.93,140.45,210.62,141.23,210.46,141.71Z"/><path class="cls-3" d="M534.48,95.84c-1.58,1.34-3.24,2.57-4.81,3.91-4.13,3.52-8.78,6.28-13.27,9.28-.47.32-1,.52-1.49.84s-.55.7-.16,1c.87.72,1.7,1.79,2.93,1.54a1.89,1.89,0,0,1,1.91.77c.33.32.6.7.93,1,1.09,1,1.65,1,2.85.07,1.7-1.28,3.34-2.62,5.09-3.83,4.54-3.12,8.9-6.49,13.21-9.93,1.52-1.21,3.12-2.34,4.7-3.47.3-.22.65-.63,1.07-.39s.15.71.09,1.08c-.27,1.53-.63,3-.82,4.58-.69,5.64-1.77,11.2-2.91,16.76-.57,2.81-1.29,5.59-1.57,8-.09,1.8.27,2.27,1.6,2.54a2.27,2.27,0,0,0,.52,0c.57,0,.75.35,1.09.81.94,1.3,1.69,2.81,3.28,3.56,1.37.66,1.9.48,2.08-1.06.34-2.85,1-5.65,1.57-8.45a49.13,49.13,0,0,0,.93-5.24,52.43,52.43,0,0,1,2.24-10.39c1.63-5.08,2.76-10.31,4.43-15.38a20,20,0,0,0,.58-2.68c.46-2.42.65-4.88,1.21-7.29A10.73,10.73,0,0,0,562,78.3a2.08,2.08,0,0,1,.24-2c.43-.52-.08-.82-.49-1s-.78,0-1.14.19a22.38,22.38,0,0,0-5.27,3.71c-3.35,2.89-6.53,6-10.25,8.4A104.09,104.09,0,0,0,534.48,95.84Z"/><path class="cls-3" d="M607.66,130.56c-.1.11-.32.12-.48.15a13.67,13.67,0,0,0-3.63,1.46c-3.39,1.68-7,2.74-10.42,4.42-3,1.51-6.35,2.34-9.49,3.59-4.65,1.85-9.43,3.29-14.14,4.94-.59.21-1.24.25-1.84.46a1.67,1.67,0,0,0-1.08,2.57,7.83,7.83,0,0,0,1.08,1.55c.75.87,1.56,1.69,2.31,2.56,1.09,1.26,1.09,1.31,2.72.73,3.14-1.1,6.23-2.41,9.42-3.34a115.76,115.76,0,0,0,16.25-6.16,8.74,8.74,0,0,1,3-1c-.34.74-.55,1.21-.76,1.68-1.61,3.56-3.7,6.89-5.32,10.44a124,124,0,0,1-8,14.46,1.64,1.64,0,0,0-.24,1.45,13.08,13.08,0,0,0,.69,1.57c.83,2,2.47,3.62,3,5.78.15.55.24,1.23,1,1.17a1.59,1.59,0,0,0,1.59-1.09,7.4,7.4,0,0,1,.57-1.25c3-5.56,6-11.11,9-16.68,1.17-2.18,2.16-4.46,3.35-6.62,3-5.47,6.16-10.9,9.21-16.36a8.37,8.37,0,0,1,1.43-1.91c2.13-2.11,3.23-4.85,4.49-7.48a2.66,2.66,0,0,0,.23-1,1.92,1.92,0,0,0-.83-1.44c-.44-.39-.72-.08-1,.22a.34.34,0,0,1-.46.08c-.84-.79-1.39-.16-2.05.33A21.35,21.35,0,0,1,611,129,6.88,6.88,0,0,0,607.66,130.56Z"/><path class="cls-3" d="M501.4,541.81a3.64,3.64,0,0,0-3.4,3.46c.07,1.56,1.8,3.32,3.23,3.28,1.82,0,3.65-1.71,3.61-3.28C504.78,543.1,503.4,541.71,501.4,541.81Z"/><path class="cls-3" d="M452.21,41.22c1.84-.06,3.65-1.72,3.59-3.3-.08-2.11-1.36-3.46-3.29-3.44A3.67,3.67,0,0,0,449,37.79C449,39.42,450.7,41.28,452.21,41.22Z"/><path class="cls-3" d="M274,512.45a3.64,3.64,0,0,0-3.6,3.43,3.78,3.78,0,0,0,3.2,3.32c1.81,0,3.67-1.68,3.64-3.26A3.22,3.22,0,0,0,274,512.45Z"/><path class="cls-3" d="M572.44,505.89a3.71,3.71,0,0,0-3.64,3.22,3.75,3.75,0,0,0,3.16,3.52c1.78,0,3.69-1.65,3.68-3.21A3.23,3.23,0,0,0,572.44,505.89Z"/><path class="cls-3" d="M373.06,43.63c1.67.13,3.78-1.53,3.77-3.06,0-2.38-1.13-3.61-3.19-3.67A3.85,3.85,0,0,0,370,40.14,4,4,0,0,0,373.06,43.63Z"/><path class="cls-3" d="M672.06,232.6a3.78,3.78,0,0,0,3.11,3.4c1.73.05,3.71-1.63,3.73-3.16a3.24,3.24,0,0,0-3.15-3.58A3.66,3.66,0,0,0,672.06,232.6Z"/><path class="cls-3" d="M217.81,461.34a3.82,3.82,0,0,0-3.57,3.33,4,4,0,0,0,3.14,3.4c1.74.07,3.68-1.58,3.71-3.14C221.12,462.73,219.85,461.34,217.81,461.34Z"/><path class="cls-3" d="M238.6,112.36c1.86-.06,3.59-1.67,3.55-3.3-.05-2.2-1.37-3.52-3.43-3.43-1.72.07-3.52,1.9-3.41,3.47S237.21,112.4,238.6,112.36Z"/><path class="cls-3" d="M178.28,393.65c-1.72.08-3.51,1.9-3.41,3.48s1.9,3.3,3.29,3.25a3.66,3.66,0,0,0,3.56-3.3C181.66,394.89,180.34,393.56,178.28,393.65Z"/><path class="cls-3" d="M663.73,384.67a3.64,3.64,0,0,0-3.41,3.45,3.76,3.76,0,0,0,3.21,3.29c1.81,0,3.66-1.7,3.63-3.26A3.24,3.24,0,0,0,663.73,384.67Z"/><path class="cls-3" d="M190.25,175.56c1.86-.06,3.59-1.67,3.55-3.3-.05-2.2-1.37-3.52-3.43-3.43-1.72.07-3.52,1.9-3.41,3.47S188.86,175.6,190.25,175.56Z"/><path class="cls-3" d="M643.13,162.79c1.8,0,3.68-1.68,3.65-3.24a3.21,3.21,0,0,0-3.23-3.5,3.62,3.62,0,0,0-3.6,3.42A3.76,3.76,0,0,0,643.13,162.79Z"/><path class="cls-3" d="M163.36,247.86a3.51,3.51,0,0,0,3.51-3.28c-.06-2.14-1.26-3.37-3.29-3.35-1.48-.28-3.58,1.7-3.56,3.28A3.82,3.82,0,0,0,163.36,247.86Z"/><path class="cls-3" d="M592.28,104.2c1.81,0,3.71-1.53,3.74-3.11a3.16,3.16,0,0,0-3.33-3.52,3.47,3.47,0,0,0-3.51,3.26A3.69,3.69,0,0,0,592.28,104.2Z"/><path class="cls-3" d="M625.18,451.9a3.49,3.49,0,0,0-3.54,3.24,3.61,3.61,0,0,0,3.24,3.39c1.78,0,3.56-1.55,3.61-3.07A3.2,3.2,0,0,0,625.18,451.9Z"/><path class="cls-3" d="M299.71,67.94a3.55,3.55,0,0,0,3.57-3.23,3.16,3.16,0,0,0-3.22-3.44,3.91,3.91,0,0,0-3.62,3.25A3.87,3.87,0,0,0,299.71,67.94Z"/><path class="cls-3" d="M526.64,61.37a3.53,3.53,0,0,0,3.54-3.26c0-2.14-1.24-3.38-3.26-3.37-1.54-.29-3.59,1.72-3.58,3.25A3.83,3.83,0,0,0,526.64,61.37Z"/><path class="cls-3" d="M683.14,308.23a3.49,3.49,0,0,0-3.48,3.3,3.68,3.68,0,0,0,3.13,3.33c1.83,0,3.7-1.55,3.72-3.13A3.18,3.18,0,0,0,683.14,308.23Z"/><path class="cls-3" d="M161,322.35a3.15,3.15,0,0,0-3.21-3.44,3.34,3.34,0,1,0-.36,6.66A3.53,3.53,0,0,0,161,322.35Z"/><path class="cls-3" d="M346.59,546.18a3.73,3.73,0,0,0-3.53,3.31,3.82,3.82,0,0,0,3.36,3.32,3.49,3.49,0,0,0,3.48-3.31C349.83,547.36,348.63,546.15,346.59,546.18Z"/><path class="cls-3" d="M423,556.54c-1.52-.28-3.58,1.72-3.58,3.27a3.84,3.84,0,0,0,3.32,3.36,3.53,3.53,0,0,0,3.53-3.26C426.18,557.76,425,556.53,423,556.54Z"/><path class="cls-2" d="M411,186.21a3.54,3.54,0,0,0-.63-1,86.84,86.84,0,0,0-7-7.37c-3.44-3.29-6.82-6.64-10.05-10.15-3.53-3.84-6.92-7.81-10.33-11.76-4.68-5.44-9.55-10.72-14.64-15.78a14.54,14.54,0,0,1-2.85-3.42c-.87-1.69-.85-1.78-2.64-1.33a6.43,6.43,0,0,0-1.46.49c-2,1.12-4.18,1.87-6.28,2.79a88.42,88.42,0,0,0-10.85,5.18c-.64.4-1,.75-1,1.58.07,1.6.06,3.21,0,4.82-.12,2.53-.06,5.05,0,7.58.07,3.67.58,7.31.66,11,.07,3.25.25,6.5.35,9.76.11,3.66.73,7.29.67,11a16.56,16.56,0,0,0,.19,1.71c.32,3.52,1.1,7,.61,10.58a3,3,0,0,0,.14,1.36,4.52,4.52,0,0,1,.11,2.54,12.66,12.66,0,0,0-.28,2.7c-.26,1.27.54,2.66,1,4.12a1.21,1.21,0,0,0,.83.83c1.2.31,2.48.88,3.63.71a22.8,22.8,0,0,0,6.19-2.07c1.68-.77,3.21-1.84,5.1-2.19a2.69,2.69,0,0,0,2-3.28,39.3,39.3,0,0,1-.48-5.93c-.05-1.12.51-2.21-.17-3.44-.91-1.64-.52-2.35,1.34-2.87,1.49-.43,2.46-1.8,4-2,.05,0,.08-.07.12-.12,1.32-1.41,3.13-2,4.83-2.73,3-1.32,6.2-2.32,9.1-3.93a1.28,1.28,0,0,1,2,.35,95.42,95.42,0,0,0,6.73,6.91c.57.56,1.12.94,1.08,1.94s.75,1.44,1.76.93a4.47,4.47,0,0,1,1.59-.64,9.27,9.27,0,0,0,4-1.34c3.13-1.77,6.52-3.06,9.64-4.88C411.59,187.93,411.64,187.88,411,186.21ZM370.7,174.64a56.55,56.55,0,0,0-7.63,3.07c-1.53.76-2.21.41-2.15-1.28a44.19,44.19,0,0,0-.65-9.2,42,42,0,0,1-.42-7.16c0-.34-.09-.69.11-1,1.32.78,11.11,11.37,13.31,14.41A7.75,7.75,0,0,1,370.7,174.64Z"/><path class="cls-2" d="M541.12,166.09a8.08,8.08,0,0,0-2-1.66,56.47,56.47,0,0,1-6.19-4.61,5.19,5.19,0,0,0-1.61-.95c-1.27-.48-2.56-1-3.11-2.76-.6.88-1.54.72-2.14,1.22a73.86,73.86,0,0,1-7.15,4.75c-2.44,1.61-5.06,3-7.44,4.64a208.86,208.86,0,0,1-19,12c-3.5,1.94-7,4-10.43,6a84,84,0,0,0-8.64,5.3,9.47,9.47,0,0,1-2.07,1.5c-1.76.64-2.43,2.19-3.21,3.61a1.94,1.94,0,0,0,.43,2.35,18.9,18.9,0,0,0,4.41,3.2c1.52.87,3.18,1.54,3.93,3.35a2.56,2.56,0,0,0,2.13,1.55,3.07,3.07,0,0,1,1.36.65c1,.66,1.61.54,2.59-.23a66.36,66.36,0,0,1,9.23-5.91,2,2,0,0,1,2.74.27,11.17,11.17,0,0,0,3,1.93,41,41,0,0,1,7.1,4.74c1.5,1.21,2.78,2.74,4.57,3.6s2,1.14,1.4,3.15c0,.06-.06.11-.08.16-1.17,2.92-1.6,6-2.53,9a3.46,3.46,0,0,0-.13,1.2,4.88,4.88,0,0,1-.58,2.8c-.4.67-.16,1.2.55,1.52s1.48.62,2.19,1c1.34.7,2.8,1.17,3.32,2.93a1.94,1.94,0,0,0,2.69,1.12,1.61,1.61,0,0,1,1.44.06c.52.23,1,.48,1.56.69,1.43.59,2.84,1.22,4.3,1.72,1,.36,1.38.07,1.62-1,.29-1.34.52-2.7.89-4,1.78-6.38,4-12.65,5.48-19.11,1.26-5.4,2.94-10.72,3.57-16.24a59.4,59.4,0,0,1,3.45-12.89,101.17,101.17,0,0,0,3.43-12.92A4.24,4.24,0,0,0,541.12,166.09Zm-24.43,29.67c-3.18-2-6-4-9.06-5.6a1.28,1.28,0,0,1,.5-.81c2.39-2,11.93-8.77,14.52-10.24C520.75,184.81,518.76,190.23,516.69,195.76Z"/><path class="cls-3" d="M453.92,251.45a6.19,6.19,0,0,1-1.71-12.27,6.21,6.21,0,0,1,7,5.34,6,6,0,0,1-5.24,6.93M404.8,326l-10.27,1.43-6.93-49.36,13.62-1.92L399.65,265,386,266.94l-.65-4.62c-1.51-10.85.74-16.57,6.51-17.37a7,7,0,0,1,5.86,1.53,5.77,5.77,0,0,0,1.45,4.51,6,6,0,0,0,9-.72c2.29-2.94,2-7.33-.89-10.53-2.24-3.27-8.51-6.14-16.58-5-8.52,1.21-21.24,7-18.09,29.38l.65,4.61-11,1.54,1.55,11.13,11-1.55,6.94,49.38-10.26,1.44L373,341.79l33.33-4.69Zm80.11-78.88a6,6,0,0,0,5.23-6.94,6.22,6.22,0,0,0-7-5.34,6.07,6.07,0,0,0-5.23,6.93,6.15,6.15,0,0,0,7,5.35m-14.63,19.34L480.43,265l6.92,49.38-10.13,1.41L478.77,327,512,322.28l-1.56-11.11-10.15,1.42-8.48-60.49-23.07,3.24Zm-46.89-10.71a6,6,0,0,0,5.22-6.92,6.22,6.22,0,0,0-7-5.35,6.2,6.2,0,0,0,1.74,12.27m25.5,64.07-10.15,1.43-8.48-60.51L407.2,264l1.56,11.12,10.14-1.41,6.93,49.36-10.14,1.43,1.55,11.11,33.21-4.65Zm22.4,7.28-9.82-70.47-23,3.21,1.56,11.27,10.64-1.49,8.54,61.27c.72,8.15,2,15-.59,23.34a30.28,30.28,0,0,1-4.9,9.82c-8.54,10.73-22.06,18.16-39,20.52-32.3,4.49-58.14-11.92-62.76-40.94-1.65-10.47-.89-15.07,1.63-22.36a19.45,19.45,0,0,1,4.81-7.9,7.34,7.34,0,0,0,4.4,1.26c4.15-.49,7.53-3.88,6.92-8.19a7.15,7.15,0,0,0-8.51-6.4c-3.71.52-6.7,3.22-8.53,5.32-7.71,8.92-12.35,21.44-9.21,40.35,5.54,33.36,35.29,53.07,72.67,47.85,21.08-2.93,38.46-12.8,48-27.91a47,47,0,0,0,2.37-4.18,45.06,45.06,0,0,0,3.83-9.82c2.09-8.45,2.11-15.89,1-24.42Z"/></svg>